<svg width="11" height="18" viewBox="0 0 11 18" fill="none" xmlns="http://www.w3.org/2000/svg">
<g id="indian-rupee-sign-solid 1" clip-path="url(#clip0_5_26)">
<path id="Vector" d="M4.09742e-05 2.25C4.09742e-05 1.62773 0.491603 1.125 1.10004 1.125H3.30004H3.85004H9.90004C10.5085 1.125 11 1.62773 11 2.25C11 2.87227 10.5085 3.375 9.90004 3.375H7.96817C8.29817 3.88125 8.54223 4.45078 8.67973 5.0625H9.90004C10.5085 5.0625 11 5.56523 11 6.1875C11 6.80976 10.5085 7.3125 9.90004 7.3125H8.67629C8.22254 9.36211 6.54848 10.9406 4.47567 11.2113L9.43942 14.8359C9.93442 15.198 10.0479 15.9012 9.69379 16.4039C9.33973 16.9066 8.65223 17.0262 8.16067 16.6641L0.460666 11.0391C0.0722285 10.7578 -0.0927715 10.248 0.0516035 9.78047C0.195978 9.31289 0.622228 9 1.10004 9H3.85004C4.97754 9 5.94692 8.30742 6.36973 7.3125H1.10004C0.491603 7.3125 4.09742e-05 6.80976 4.09742e-05 6.1875C4.09742e-05 5.56523 0.491603 5.0625 1.10004 5.0625H6.36973C5.94692 4.06758 4.97754 3.375 3.85004 3.375H3.30004H1.10004C0.491603 3.375 4.09742e-05 2.87227 4.09742e-05 2.25Z" fill="black"/>
</g>
<defs>
<clipPath id="clip0_5_26">
<rect width="11" height="18" fill="white"/>
</clipPath>
</defs>
</svg>
