<svg width="127" height="235" viewBox="0 0 127 235" fill="none" xmlns="http://www.w3.org/2000/svg">
<g id="Group">
<path id="Vector" d="M133.765 140.767C146.907 140.767 157.561 130.253 157.561 117.282C157.561 104.312 146.907 93.797 133.765 93.797C120.624 93.797 109.97 104.312 109.97 117.282C109.97 130.253 120.624 140.767 133.765 140.767Z" fill="#70B1BF"/>
<g id="Group_2">
<path id="Vector_2" fill-rule="evenodd" clip-rule="evenodd" d="M133.77 69.5326C165.719 69.5326 195.398 74.0571 217.777 81.6607C244.739 90.8222 261.317 104.709 261.317 117.283C261.317 130.386 243.748 145.139 214.794 154.607C192.904 161.765 164.098 165.501 133.77 165.501C102.676 165.501 73.2318 161.994 51.095 154.528C23.0878 145.08 6.21889 130.137 6.21889 117.283C6.21889 104.811 22.0472 91.0314 48.6308 81.884C71.0926 74.155 101.505 69.5326 133.766 69.5326H133.77Z" stroke="#70B1BF" stroke-width="11.2354"/>
<path id="Vector_3" fill-rule="evenodd" clip-rule="evenodd" d="M91.6562 93.5446C107.617 66.2295 126.415 43.1146 144.269 27.7803C165.779 9.30464 186.25 2.06907 197.286 8.3501C208.787 14.8961 212.959 37.2877 206.804 66.7721C202.156 89.064 191.04 115.558 175.89 141.487C160.355 168.072 142.568 191.494 124.958 206.686C102.674 225.912 81.13 232.869 69.8481 226.448C58.9006 220.221 54.7142 199.801 59.966 172.502C64.4033 149.437 75.5391 121.126 91.651 93.5441L91.6562 93.5446Z" stroke="#70B1BF" stroke-width="11.2354"/>
<path id="Vector_4" fill-rule="evenodd" clip-rule="evenodd" d="M91.6861 141.557C75.68 114.272 64.7823 86.6498 60.2335 63.7259C54.7579 36.1057 58.6294 14.9879 69.6556 8.68857C81.1457 2.12338 102.885 9.73908 125.693 29.7268C142.937 44.8383 160.645 67.5698 175.84 93.4748C191.419 120.034 203.095 146.941 207.637 169.586C213.384 198.242 208.732 220.138 197.461 226.577C186.524 232.826 166.511 226.21 145.171 208.086C127.141 192.773 107.85 169.112 91.6861 141.556V141.557Z" stroke="#70B1BF" stroke-width="11.2354"/>
</g>
</g>
</svg>
